G04*
G04 #@! TF.GenerationSoftware,Altium Limited,Altium Designer,20.0.13 (296)*
G04*
G04 Layer_Physical_Order=2*
G04 Layer_Color=16711680*
%FSLAX44Y44*%
%MOMM*%
G71*
G01*
G75*
%ADD13C,0.2540*%
%ADD56C,1.8000*%
%ADD57P,1.9483X8X22.5*%
%ADD58C,1.5240*%
%ADD59C,2.0000*%
%ADD60R,2.0000X2.0000*%
%ADD61C,1.2700*%
D13*
X972820Y900939D02*
Y989330D01*
X857250Y785369D02*
X972820Y900939D01*
X763270Y919480D02*
X871220Y811530D01*
X729198Y919480D02*
X763270D01*
X857250Y772160D02*
Y785369D01*
X820420Y723900D02*
X873760D01*
X813816Y712470D02*
X838617D01*
X804164Y722122D02*
Y746252D01*
Y722122D02*
X813816Y712470D01*
X873760Y723900D02*
X974090Y623570D01*
X804164Y746252D02*
X841248Y783336D01*
X843026Y800354D02*
X855980D01*
X818642Y775970D02*
X843026Y800354D01*
X789940Y775970D02*
X818642D01*
X614426Y577850D02*
Y654050D01*
X734060Y608330D02*
X762000Y580390D01*
X633730Y608330D02*
X734060D01*
X828960Y612300D02*
X985266D01*
X816370Y599710D02*
X828960Y612300D01*
X844042Y636270D02*
X935990D01*
X948690Y623570D01*
X816102Y608330D02*
X844042Y636270D01*
X985266Y612300D02*
X985266Y612300D01*
X814768Y599710D02*
X816370D01*
X800100Y585042D02*
X814768Y599710D01*
X800100Y573024D02*
Y585042D01*
X812800Y608330D02*
X816102D01*
X787400Y650240D02*
X846328D01*
X774700Y662940D02*
X787400Y650240D01*
X829310Y702310D02*
X832230Y699390D01*
X829310Y702310D02*
Y702310D01*
X840850Y687434D02*
Y710237D01*
X835406Y681990D02*
X840850Y687434D01*
X838617Y712470D02*
X840850Y710237D01*
X797306Y702310D02*
X829310D01*
X787400Y712216D02*
X797306Y702310D01*
X774700Y662940D02*
X793750Y681990D01*
X835406D01*
X812800Y569722D02*
X818642Y563880D01*
X861060D01*
X1018286Y665480D02*
X1076960D01*
X986790Y633984D02*
X1018286Y665480D01*
X722630Y924306D02*
X724372D01*
X729198Y919480D01*
X905510Y932180D02*
X935990Y901700D01*
X795020Y932180D02*
X905510D01*
X935990Y901700D02*
X938530D01*
X772160Y712216D02*
X787400D01*
X855980Y598170D02*
X923290D01*
X838200Y580390D02*
X855980Y598170D01*
X923290D02*
X934720Y586740D01*
X962660D01*
X974090Y598170D01*
X600870Y989678D02*
X722122D01*
X614426Y577850D02*
X624332Y567944D01*
X795020D01*
X800100Y573024D01*
X985266Y612300D02*
X986790Y633984D01*
X1003046Y690880D02*
X1028827Y716661D01*
X979678Y690880D02*
X1003046D01*
X877316Y793242D02*
X979678Y690880D01*
X580136Y919480D02*
X787400Y712216D01*
X974090Y598170D02*
X984680Y608760D01*
X988060D01*
X988900Y609600D01*
X1089660D01*
X1101090Y598170D01*
X762254Y702310D02*
X772160Y712216D01*
X762254Y605536D02*
Y702310D01*
Y605536D02*
X787400Y580390D01*
X812800Y569722D02*
Y580390D01*
D56*
X1101090Y623570D02*
D03*
Y598170D02*
D03*
X1075690Y623570D02*
D03*
Y598170D02*
D03*
X1050290Y623570D02*
D03*
Y598170D02*
D03*
X1024890Y623570D02*
D03*
Y598170D02*
D03*
X923290Y623570D02*
D03*
X948690Y598170D02*
D03*
Y623570D02*
D03*
X974090Y598170D02*
D03*
Y623570D02*
D03*
X999490Y598170D02*
D03*
Y623570D02*
D03*
D57*
X923290Y598170D02*
D03*
D58*
X1184910Y1028700D02*
D03*
X542290Y1027430D02*
D03*
X1184910Y577850D02*
D03*
X542290Y575310D02*
D03*
D59*
X812800Y580390D02*
D03*
X787400D02*
D03*
X838200D02*
D03*
X774700Y662940D02*
D03*
X825500D02*
D03*
X800100D02*
D03*
Y637540D02*
D03*
X825500D02*
D03*
D60*
X762000Y580390D02*
D03*
X774700Y637540D02*
D03*
D61*
X972820Y989330D02*
D03*
X871220Y811530D02*
D03*
X857250Y772160D02*
D03*
X820420Y723900D02*
D03*
X855980Y800354D02*
D03*
X614426Y654050D02*
D03*
X633730Y608330D02*
D03*
X812800D02*
D03*
X832230Y699390D02*
D03*
X861060Y563880D02*
D03*
X1076960Y665480D02*
D03*
X789940Y775970D02*
D03*
X722630Y924306D02*
D03*
X795020Y932180D02*
D03*
X841248Y783336D02*
D03*
X938530Y901700D02*
D03*
X600870Y989678D02*
D03*
X722122D02*
D03*
X1028827Y716661D02*
D03*
X877316Y793242D02*
D03*
X580136Y919480D02*
D03*
X846328Y650240D02*
D03*
M02*
