G04*
G04 #@! TF.GenerationSoftware,Altium Limited,Altium Designer,20.0.13 (296)*
G04*
G04 Layer_Color=255*
%FSLAX44Y44*%
%MOMM*%
G71*
G01*
G75*
%ADD14R,1.2500X1.0000*%
%ADD15R,0.8500X0.8500*%
%ADD16R,1.3000X1.3000*%
%ADD17R,2.0000X1.3000*%
%ADD18O,0.3000X1.4000*%
%ADD19O,1.4000X0.3000*%
%ADD20R,1.5000X3.3000*%
%ADD21R,1.5000X1.0000*%
%ADD22R,4.3000X2.0000*%
%ADD23R,1.0000X1.2500*%
%ADD24R,0.8000X5.0000*%
%ADD25R,1.6000X1.0000*%
%ADD26R,1.7000X2.5000*%
%ADD27R,1.9000X1.7500*%
%ADD28R,1.9000X1.8000*%
%ADD29R,1.6000X2.1000*%
%ADD30R,1.4000X0.4000*%
%ADD31R,1.4000X2.1000*%
%ADD56C,1.8000*%
%ADD57P,1.9483X8X22.5*%
%ADD58C,1.5240*%
%ADD59C,2.0000*%
%ADD60R,2.0000X2.0000*%
D14*
X1010920Y1014730D02*
D03*
Y994730D02*
D03*
X547370Y887570D02*
D03*
Y867570D02*
D03*
X551180Y957420D02*
D03*
Y937420D02*
D03*
X683260Y935040D02*
D03*
Y955040D02*
D03*
X665480Y674530D02*
D03*
Y694530D02*
D03*
X600710Y957580D02*
D03*
Y937580D02*
D03*
X760730Y953770D02*
D03*
Y933770D02*
D03*
X840740Y952500D02*
D03*
Y932500D02*
D03*
X633730Y811690D02*
D03*
Y831690D02*
D03*
X1073150Y931070D02*
D03*
Y951070D02*
D03*
X990600Y931230D02*
D03*
Y951230D02*
D03*
X918210Y932500D02*
D03*
Y952500D02*
D03*
X1131570Y1010760D02*
D03*
Y990760D02*
D03*
X632460Y754220D02*
D03*
Y734220D02*
D03*
D15*
X600710Y884570D02*
D03*
Y870570D02*
D03*
D16*
X1155630Y738700D02*
D03*
X1178630D02*
D03*
D17*
X1167130Y683700D02*
D03*
D18*
X886020Y833210D02*
D03*
X881020D02*
D03*
X876020D02*
D03*
X871020D02*
D03*
X866020D02*
D03*
X861020D02*
D03*
X856020D02*
D03*
X851020D02*
D03*
X846020D02*
D03*
X841020D02*
D03*
X836020D02*
D03*
X831020D02*
D03*
Y749210D02*
D03*
X836020D02*
D03*
X841020D02*
D03*
X846020D02*
D03*
X851020D02*
D03*
X856020D02*
D03*
X861020D02*
D03*
X866020D02*
D03*
X871020D02*
D03*
X876020D02*
D03*
X881020D02*
D03*
X886020D02*
D03*
D19*
X816520Y818710D02*
D03*
Y813710D02*
D03*
Y808710D02*
D03*
Y803710D02*
D03*
Y798710D02*
D03*
Y793710D02*
D03*
Y788710D02*
D03*
Y783710D02*
D03*
Y778710D02*
D03*
Y773710D02*
D03*
Y768710D02*
D03*
Y763710D02*
D03*
X900520D02*
D03*
Y768710D02*
D03*
Y773710D02*
D03*
Y778710D02*
D03*
Y783710D02*
D03*
Y788710D02*
D03*
Y793710D02*
D03*
Y798710D02*
D03*
Y803710D02*
D03*
Y808710D02*
D03*
Y813710D02*
D03*
Y818710D02*
D03*
D20*
X716300Y595630D02*
D03*
D21*
X653300Y572630D02*
D03*
Y618630D02*
D03*
Y595630D02*
D03*
D22*
X565150Y739430D02*
D03*
Y807430D02*
D03*
D23*
X600870Y1010920D02*
D03*
X620870D02*
D03*
X707070Y1009650D02*
D03*
X687070D02*
D03*
X787240D02*
D03*
X767240D02*
D03*
X866140D02*
D03*
X846140D02*
D03*
X931070Y1010920D02*
D03*
X951070D02*
D03*
X1064420Y1003300D02*
D03*
X1084420D02*
D03*
D24*
X599440Y678730D02*
D03*
Y588730D02*
D03*
D25*
X1169670Y933690D02*
D03*
Y963690D02*
D03*
D26*
X1069020Y858520D02*
D03*
X1029020D02*
D03*
D27*
X1173480Y852170D02*
D03*
Y829670D02*
D03*
D28*
Y880920D02*
D03*
Y800920D02*
D03*
D29*
X1147980Y871920D02*
D03*
Y809920D02*
D03*
D30*
X1146980Y853920D02*
D03*
Y847420D02*
D03*
Y840920D02*
D03*
Y834420D02*
D03*
Y827920D02*
D03*
D31*
X1103270Y776520D02*
D03*
X1058270D02*
D03*
X1103270Y686520D02*
D03*
X1058270D02*
D03*
D56*
X1101090Y623570D02*
D03*
Y598170D02*
D03*
X1075690Y623570D02*
D03*
Y598170D02*
D03*
X1050290Y623570D02*
D03*
Y598170D02*
D03*
X1024890Y623570D02*
D03*
Y598170D02*
D03*
X923290Y623570D02*
D03*
X948690Y598170D02*
D03*
Y623570D02*
D03*
X974090Y598170D02*
D03*
Y623570D02*
D03*
X999490Y598170D02*
D03*
Y623570D02*
D03*
D57*
X923290Y598170D02*
D03*
D58*
X1184910Y1028700D02*
D03*
X542290Y1027430D02*
D03*
X1184910Y577850D02*
D03*
X542290Y575310D02*
D03*
D59*
X812800Y580390D02*
D03*
X787400D02*
D03*
X838200D02*
D03*
X774700Y662940D02*
D03*
X825500D02*
D03*
X800100D02*
D03*
Y637540D02*
D03*
X825500D02*
D03*
D60*
X762000Y580390D02*
D03*
X774700Y637540D02*
D03*
M02*
