G04*
G04 #@! TF.GenerationSoftware,Altium Limited,Altium Designer,20.0.13 (296)*
G04*
G04 Layer_Color=16711935*
%FSLAX44Y44*%
%MOMM*%
G71*
G01*
G75*
%ADD11C,0.5000*%
%ADD62C,0.1000*%
%ADD63C,0.0500*%
D11*
X877190Y571870D02*
D03*
X1147130Y737700D02*
D03*
X898520Y831210D02*
D03*
X1029020Y849520D02*
D03*
D62*
X872341Y654871D02*
X1152041D01*
Y566871D02*
Y654871D01*
X872341Y566871D02*
X1152041D01*
X872341D02*
Y653719D01*
Y654871D01*
X1004920Y1014222D02*
X1016920D01*
X1004920Y994230D02*
X1016920D01*
Y1014222D01*
X1004920Y994230D02*
Y1014222D01*
X604710Y869570D02*
Y885570D01*
X596709Y869570D02*
Y885570D01*
X604710D01*
X596709Y869570D02*
X604710D01*
X1142139Y742688D02*
X1192130D01*
Y680712D02*
Y742688D01*
X1142139Y680712D02*
X1192130D01*
X1142139D02*
Y742688D01*
X813520Y836210D02*
X903520D01*
X813520Y746210D02*
Y836210D01*
Y746210D02*
X903520D01*
Y836210D01*
X825500Y574040D02*
X831850Y567690D01*
X844550D01*
X850900Y574040D01*
Y586740D01*
X844550Y593090D02*
X850900Y586740D01*
X831850Y593090D02*
X844550D01*
X825500Y586740D02*
X831850Y593090D01*
X800100Y586740D02*
X806450Y593090D01*
X819150D01*
X825500Y586740D01*
Y574040D02*
Y586740D01*
X819150Y567690D02*
X825500Y574040D01*
X806450Y567690D02*
X819150D01*
X800100Y574040D02*
X806450Y567690D01*
X749300D02*
X774700D01*
Y574040D02*
X781050Y567690D01*
X793750D01*
X800100Y574040D01*
Y586740D01*
X793750Y593090D02*
X800100Y586740D01*
X781050Y593090D02*
X793750D01*
X774700Y586740D02*
X781050Y593090D01*
X749300Y567690D02*
Y593090D01*
X774700Y567690D02*
Y593090D01*
X749300D02*
X774700D01*
X541370Y887062D02*
X553370D01*
X541370Y867070D02*
X553370D01*
Y887062D01*
X541370Y867070D02*
Y887062D01*
X542899Y736431D02*
X587399D01*
X542899Y810434D02*
X587399D01*
X542900Y753180D02*
X587400D01*
X587399Y736431D02*
Y810434D01*
X542899Y736431D02*
Y810434D01*
X557180Y937928D02*
Y957920D01*
X545180Y937928D02*
Y957920D01*
X557180D01*
X545180Y937928D02*
X557180D01*
X677260Y935548D02*
X689260D01*
X677260Y955540D02*
X689260D01*
X677260Y935548D02*
Y955540D01*
X689260Y935548D02*
Y955540D01*
X659480Y675038D02*
X671480D01*
X659480Y695030D02*
X671480D01*
X659480Y675038D02*
Y695030D01*
X671480Y675038D02*
Y695030D01*
X606710Y938088D02*
Y958080D01*
X594710Y938088D02*
Y958080D01*
X606710D01*
X594710Y938088D02*
X606710D01*
X754730Y953262D02*
X766730D01*
X754730Y933270D02*
X766730D01*
Y953262D01*
X754730Y933270D02*
Y953262D01*
X600370Y1016920D02*
X620362D01*
X600370Y1004920D02*
X620362D01*
X600370D02*
Y1016920D01*
X620362Y1004920D02*
Y1016920D01*
X834740Y951992D02*
X846740D01*
X834740Y932000D02*
X846740D01*
Y951992D01*
X834740Y932000D02*
Y951992D01*
X627730Y812198D02*
X639730D01*
X627730Y832190D02*
X639730D01*
X627730Y812198D02*
Y832190D01*
X639730Y812198D02*
Y832190D01*
X1067150Y931578D02*
X1079150D01*
X1067150Y951570D02*
X1079150D01*
X1067150Y931578D02*
Y951570D01*
X1079150Y931578D02*
Y951570D01*
X984600Y931738D02*
X996600D01*
X984600Y951730D02*
X996600D01*
X984600Y931738D02*
Y951730D01*
X996600Y931738D02*
Y951730D01*
X912210Y933008D02*
X924210D01*
X912210Y953000D02*
X924210D01*
X912210Y933008D02*
Y953000D01*
X924210Y933008D02*
Y953000D01*
X819150Y650240D02*
X831850D01*
X793750D02*
X806450D01*
X762000D02*
X781050D01*
X819150Y675640D02*
X831850D01*
X793750D02*
X806450D01*
X819150Y624840D02*
X831850D01*
X793750D02*
X806450D01*
X768350Y675640D02*
X781050D01*
X762000Y624840D02*
X787400D01*
Y643890D01*
X762000Y624840D02*
Y650240D01*
X831850D02*
X838200Y656590D01*
X831850Y675640D02*
X838200Y669290D01*
X831850Y650240D02*
X838200Y643890D01*
X831850Y624840D02*
X838200Y631190D01*
X812800Y656590D02*
X819150Y650240D01*
X812800Y669290D02*
X819150Y675640D01*
X812800Y643890D02*
X819150Y650240D01*
X806450D02*
X812800Y656590D01*
X806450Y675640D02*
X812800Y669290D01*
X806450Y650240D02*
X812800Y643890D01*
Y631190D02*
X819150Y624840D01*
X806450D02*
X812800Y631190D01*
X787400Y656590D02*
X793750Y650240D01*
X787400Y669290D02*
X793750Y675640D01*
X787400Y643890D02*
X793750Y650240D01*
X781050D02*
X787400Y656590D01*
X781050Y675640D02*
X787400Y669290D01*
Y631190D02*
X793750Y624840D01*
X762000Y669290D02*
X768350Y675640D01*
X762000Y656590D02*
X768350Y650240D01*
X838200Y656590D02*
Y669290D01*
Y631190D02*
Y643890D01*
X812800Y656590D02*
Y669290D01*
Y631190D02*
Y643890D01*
X762000Y656590D02*
Y669290D01*
X687578Y1003650D02*
X707570D01*
X687578Y1015650D02*
X707570D01*
Y1003650D02*
Y1015650D01*
X687578Y1003650D02*
Y1015650D01*
X767748Y1003650D02*
X787740D01*
X767748Y1015650D02*
X787740D01*
Y1003650D02*
Y1015650D01*
X767748Y1003650D02*
Y1015650D01*
X1161920Y932690D02*
X1177420D01*
X1161920Y964690D02*
X1177420D01*
X1161920Y932690D02*
Y964690D01*
X1177420Y932690D02*
Y964690D01*
X1137570Y991268D02*
Y1011260D01*
X1125570Y991268D02*
Y1011260D01*
X1137570D01*
X1125570Y991268D02*
X1137570D01*
X1024020Y845018D02*
X1074020D01*
X1024020D02*
Y872018D01*
X1074020D01*
Y845018D02*
Y872018D01*
X1144980Y801920D02*
Y879920D01*
X1194980Y801920D02*
Y879920D01*
X1144980D02*
X1194980D01*
X1144980Y801920D02*
X1194980D01*
X846648Y1003650D02*
X866640D01*
X846648Y1015650D02*
X866640D01*
Y1003650D02*
Y1015650D01*
X846648Y1003650D02*
Y1015650D01*
X930570Y1016920D02*
X950562D01*
X930570Y1004920D02*
X950562D01*
X930570D02*
Y1016920D01*
X950562Y1004920D02*
Y1016920D01*
X626460Y753712D02*
X638460D01*
X626460Y733720D02*
X638460D01*
Y753712D01*
X626460Y733720D02*
Y753712D01*
X1063920Y1009300D02*
X1083912D01*
X1063920Y997300D02*
X1083912D01*
X1063920D02*
Y1009300D01*
X1083912Y997300D02*
Y1009300D01*
D63*
X1050771Y776519D02*
X1110771D01*
X1050771Y686519D02*
Y776519D01*
Y686519D02*
X1110771D01*
Y776519D01*
M02*
