G04*
G04 #@! TF.GenerationSoftware,Altium Limited,Altium Designer,20.0.13 (296)*
G04*
G04 Layer_Physical_Order=1*
G04 Layer_Color=255*
%FSLAX44Y44*%
%MOMM*%
G71*
G01*
G75*
%ADD13C,0.2540*%
%ADD14R,1.2500X1.0000*%
%ADD15R,0.8500X0.8500*%
%ADD16R,1.3000X1.3000*%
%ADD17R,2.0000X1.3000*%
%ADD18O,0.3000X1.4000*%
%ADD19O,1.4000X0.3000*%
%ADD20R,1.5000X3.3000*%
%ADD21R,1.5000X1.0000*%
%ADD22R,4.3000X2.0000*%
%ADD23R,1.0000X1.2500*%
%ADD24R,0.8000X5.0000*%
%ADD25R,1.6000X1.0000*%
%ADD26R,1.7000X2.5000*%
%ADD27R,1.9000X1.7500*%
%ADD28R,1.9000X1.8000*%
%ADD29R,1.6000X2.1000*%
%ADD30R,1.4000X0.4000*%
%ADD31R,1.4000X2.1000*%
%ADD56C,1.8000*%
%ADD57P,1.9483X8X22.5*%
%ADD58C,1.5240*%
%ADD59C,2.0000*%
%ADD60R,2.0000X2.0000*%
%ADD61C,1.2700*%
D13*
X951070Y991616D02*
X969866Y972820D01*
X1053084D02*
X1071880Y991616D01*
X969866Y972820D02*
X1053084D01*
X972820Y989330D02*
X996000D01*
X1006160Y999490D01*
X1010920Y994730D01*
X856020Y814538D02*
X877316Y793242D01*
X856020Y814538D02*
Y833210D01*
X871220Y811530D02*
Y822178D01*
X868680Y824718D02*
X871220Y822178D01*
X866020Y833210D02*
X867250Y831980D01*
Y826148D02*
Y831980D01*
Y826148D02*
X868680Y824718D01*
X827250Y756272D02*
X843138Y772160D01*
X857250D01*
X802640Y759460D02*
X840323Y721777D01*
Y719673D02*
Y721777D01*
X817880Y697230D02*
X840323Y719673D01*
X827250Y742149D02*
Y756272D01*
Y742149D02*
X829458Y739940D01*
X812800Y731520D02*
Y736870D01*
X765810Y783860D02*
X812800Y736870D01*
Y731520D02*
X820420Y723900D01*
X801370Y686308D02*
Y742950D01*
X795020Y672745D02*
Y740981D01*
X787654Y649986D02*
Y735639D01*
X713740Y822261D02*
X795020Y740981D01*
X707390Y815903D02*
X787654Y735639D01*
X825686Y763710D02*
X846020Y784044D01*
X816520Y763710D02*
X825686D01*
X829458Y739940D02*
X871020D01*
X851020Y805314D02*
X855980Y800354D01*
X846020Y788108D02*
Y833210D01*
X827250Y785198D02*
Y993422D01*
X825762Y783710D02*
X827250Y785198D01*
X816520Y783710D02*
X825762D01*
X801370Y1019302D02*
X827250Y993422D01*
X851020Y805314D02*
Y833210D01*
X531622Y621538D02*
Y974598D01*
X538849Y730643D02*
X558038Y711454D01*
X535309Y965573D02*
X543404Y973667D01*
X531622Y974598D02*
X560832Y1003808D01*
X599440Y588730D02*
Y619776D01*
X614426Y654050D02*
Y729902D01*
X558038Y711454D02*
X601472D01*
X605790Y632460D02*
X634492Y603758D01*
X535309Y683907D02*
X599440Y619776D01*
X538849Y730643D02*
Y874840D01*
X535309Y683907D02*
Y965573D01*
X531622Y621538D02*
X593344Y559816D01*
X605790Y632460D02*
Y707136D01*
X601472Y711454D02*
X605790Y707136D01*
X538849Y874840D02*
X546100Y882091D01*
X593344Y559816D02*
X609346D01*
X633730Y604012D02*
X642112Y595630D01*
X633730Y604012D02*
Y608330D01*
X642112Y595630D02*
X653300D01*
X612648Y563118D02*
Y609346D01*
X609346Y559816D02*
X612648Y563118D01*
X801370Y686308D02*
X812800Y674878D01*
Y608330D02*
Y674878D01*
X825500Y593090D02*
Y637540D01*
Y593090D02*
X838200Y580390D01*
X817880Y685800D02*
Y697230D01*
Y685800D02*
X825500Y678180D01*
Y662940D02*
Y678180D01*
X832230Y699390D02*
X847980D01*
X876020Y727430D01*
X871020Y739940D02*
Y749210D01*
X756920Y787400D02*
X801370Y742950D01*
X800100Y662940D02*
Y667665D01*
X795020Y672745D02*
X800100Y667665D01*
X876020Y727430D02*
Y749210D01*
X861060Y563880D02*
Y649478D01*
X900684Y689102D01*
X1068578Y665480D02*
X1076960D01*
X1060704Y673354D02*
X1068578Y665480D01*
X1063284Y793710D02*
X1088390Y768604D01*
X1075690Y627475D02*
X1088390Y640175D01*
Y768604D01*
X1075690Y623570D02*
Y627475D01*
X802640Y759460D02*
Y767222D01*
X789940Y772160D02*
X802640Y759460D01*
Y767222D02*
X804128Y768710D01*
X816520D01*
X789940Y772160D02*
Y775970D01*
X767298Y788710D02*
X816520D01*
X765810Y783860D02*
Y787222D01*
X767298Y788710D01*
X758408Y793710D02*
X816520D01*
X756920Y792222D02*
X758408Y793710D01*
X756920Y787400D02*
Y792222D01*
X600710Y937580D02*
X635320D01*
X652780Y955040D02*
X683260D01*
X635320Y937580D02*
X652780Y955040D01*
X722630Y924306D02*
X752094Y953770D01*
X767240Y1007966D02*
X795020Y980186D01*
Y932180D02*
Y980186D01*
X815340Y920750D02*
Y981550D01*
X725170Y908050D02*
X802640D01*
X815340Y920750D01*
X814832Y1025398D02*
X835760Y1004470D01*
Y956230D02*
X839490Y952500D01*
X840740D01*
X835760Y956230D02*
Y1004470D01*
X841248Y783336D02*
X846020Y788108D01*
X787240Y1009650D02*
X815340Y981550D01*
X927608Y798710D02*
X938530Y809632D01*
Y901700D01*
X900520Y798710D02*
X927608D01*
X713740Y896620D02*
X725170Y908050D01*
X713740Y822261D02*
Y896620D01*
X707070Y879414D02*
X707390Y879094D01*
Y815903D02*
Y879094D01*
X1084420Y999236D02*
Y1003300D01*
Y962340D02*
Y999236D01*
X1137666D01*
X1071786Y951070D02*
X1081786Y941070D01*
X1071626Y951230D02*
X1071786Y951070D01*
X846020Y784044D02*
Y788108D01*
X599440Y937580D02*
X600710D01*
X592074D02*
X599440D01*
Y929640D02*
Y937580D01*
X546100Y882091D02*
Y887570D01*
X1058164Y887222D02*
X1107186Y936244D01*
X1039876Y868934D02*
X1058164Y887222D01*
X999744Y931230D02*
X1033951D01*
X990600D02*
X999744D01*
X1147980Y800920D02*
Y809920D01*
Y798730D02*
Y800920D01*
X1173480D01*
X1103270Y788670D02*
Y793602D01*
Y776520D02*
Y788670D01*
X814832Y1025398D02*
X851662D01*
X731520Y953770D02*
X752094D01*
X560832Y1003808D02*
X600870D01*
X900684Y689102D02*
Y763710D01*
X1166622Y963690D02*
Y975708D01*
X1029020Y858520D02*
Y871794D01*
X1081786Y924560D01*
Y941070D01*
X990600Y951230D02*
X1071626D01*
X955802D02*
X990600D01*
X918210Y952500D02*
X955802Y951230D01*
X1071786Y951070D02*
X1073150D01*
X990600Y951230D02*
X1071786Y951070D01*
X1149364Y933690D02*
X1169670D01*
X1140206Y942848D02*
X1149364Y933690D01*
X1140206Y942848D02*
Y996696D01*
X1137666Y999236D02*
X1140206Y996696D01*
X1073150Y951070D02*
X1084420Y962340D01*
X625856Y831690D02*
X633730D01*
X600710Y856836D02*
X625856Y831690D01*
X600710Y856836D02*
Y870570D01*
X546100Y887570D02*
X547370D01*
X774700Y593090D02*
Y637540D01*
X762000Y580390D02*
X774700Y593090D01*
X731540Y580390D02*
X762000D01*
X716300Y595630D02*
X731540Y580390D01*
X999744Y931230D02*
X1018032Y912942D01*
Y843534D02*
Y912942D01*
Y843534D02*
X1039876D01*
Y868934D01*
X1107186Y976282D02*
X1121664Y990760D01*
X665480Y630810D02*
Y674530D01*
X653300Y618630D02*
X665480Y630810D01*
X653300Y572630D02*
X663194Y582524D01*
Y608736D01*
X653300Y618630D02*
X663194Y608736D01*
X551180Y937420D02*
X557022Y931578D01*
Y877222D02*
Y931578D01*
X547370Y867570D02*
X557022Y877222D01*
X632460Y754220D02*
X642112D01*
X657926Y738406D01*
Y694530D02*
Y738406D01*
Y694530D02*
X665480D01*
X543404Y973667D02*
X611049D01*
X620870Y983488D01*
Y1010920D01*
X752094Y953770D02*
X760730D01*
X600870Y1003808D02*
Y1010920D01*
Y989678D02*
Y1003808D01*
X722122Y963168D02*
Y989678D01*
Y963168D02*
X731520Y953770D01*
X599440Y626491D02*
Y678730D01*
Y626491D02*
X603250Y622681D01*
Y618744D02*
Y622681D01*
Y618744D02*
X612648Y609346D01*
X618744Y734220D02*
X632460D01*
X614426Y729902D02*
X618744Y734220D01*
X1058270Y686520D02*
X1060704Y673354D01*
X1058270Y686520D02*
Y687218D01*
X1028827Y716661D02*
X1058270Y687218D01*
X866020Y749210D02*
Y762658D01*
X885936Y782574D01*
Y819134D01*
X890016Y823214D01*
Y961992D01*
X931070Y1003046D01*
Y1010920D01*
X580136Y919480D02*
Y929734D01*
X552450Y957420D02*
X580136Y929734D01*
X551180Y957420D02*
X552450D01*
X600710Y957580D02*
X641858D01*
X653542Y969264D01*
X687578D01*
X697738Y959104D01*
Y585470D02*
Y959104D01*
Y585470D02*
X715088Y568120D01*
X800530D01*
X812800Y580390D01*
X1010920Y1014730D02*
X1053592D01*
X1071118Y1032256D01*
X1151384D01*
X1183640Y999999D01*
Y921766D02*
Y999999D01*
X1174496Y921766D02*
X1183640D01*
X1137666Y884936D02*
X1174496Y921766D01*
X1137666Y841428D02*
Y884936D01*
Y841428D02*
X1146980Y840920D01*
X690372Y1019302D02*
X801370D01*
X687070Y1016000D02*
X690372Y1019302D01*
X687070Y1009650D02*
Y1016000D01*
X886020Y749210D02*
Y777117D01*
X889476Y780574D01*
Y816256D01*
X891930Y818710D01*
X900520D01*
X1167130Y606552D02*
Y683700D01*
X1136396Y575818D02*
X1167130Y606552D01*
X971042Y575818D02*
X1136396D01*
X948690Y598170D02*
X971042Y575818D01*
X861020Y833210D02*
Y998768D01*
X858774Y1001014D02*
X861020Y998768D01*
X858774Y1001014D02*
Y1018286D01*
X851662Y1025398D02*
X858774Y1018286D01*
X918210Y952500D02*
X926592D01*
X938530Y964438D01*
Y1019556D01*
X869696D02*
X938530D01*
X866140Y1016000D02*
X869696Y1019556D01*
X866140Y1009650D02*
Y1016000D01*
X900520Y793710D02*
X1063284D01*
X1062990Y610870D02*
X1075690Y598170D01*
X1062990Y610870D02*
Y659384D01*
X933664Y788710D02*
X1062990Y659384D01*
X900520Y788710D02*
X933664D01*
X620870Y1010920D02*
X660908D01*
X675386Y1025398D01*
X814832D01*
X600710Y884570D02*
X642366Y842914D01*
Y813976D02*
Y842914D01*
X640080Y811690D02*
X642366Y813976D01*
X633730Y811690D02*
X640080D01*
X1166622Y963690D02*
X1169670D01*
X1131570Y1010760D02*
X1166622Y975708D01*
X1083872Y827920D02*
X1146980D01*
X1069020Y842772D02*
X1083872Y827920D01*
X1069020Y842772D02*
Y858520D01*
X1058164Y838708D02*
X1103270Y793602D01*
X1058164Y838708D02*
Y887222D01*
X1107186Y936244D02*
Y976282D01*
X1121664Y990760D02*
X1131570D01*
X547370Y887570D02*
Y925322D01*
X542544Y930148D02*
X547370Y925322D01*
X542544Y930148D02*
Y964692D01*
X564962D01*
X592074Y937580D01*
X881020Y718460D02*
Y749210D01*
X825500Y662940D02*
X881020Y718460D01*
X787654Y649986D02*
X800100Y637540D01*
X707070Y879414D02*
Y1009650D01*
X886020Y689932D02*
Y749210D01*
X846328Y650240D02*
X886020Y689932D01*
X1137920Y834420D02*
X1146980D01*
X1129792Y842548D02*
X1137920Y834420D01*
X1129792Y842548D02*
Y898652D01*
X1156462Y925322D01*
X1180084D01*
Y991905D01*
X1153957Y1018032D02*
X1180084Y991905D01*
X1082040Y1018032D02*
X1153957D01*
X1071880Y1007872D02*
X1082040Y1018032D01*
X1071880Y991616D02*
Y1007872D01*
X951070Y991616D02*
Y1010920D01*
X900520Y783710D02*
X924186D01*
X1050290Y657606D01*
Y623570D02*
Y657606D01*
X1036066Y583946D02*
X1050290Y598170D01*
X1020318Y583946D02*
X1036066D01*
X1010920Y593344D02*
X1020318Y583946D01*
X1010920Y593344D02*
Y678126D01*
X910336Y778710D02*
X1010920Y678126D01*
X900520Y778710D02*
X910336D01*
X767240Y1007966D02*
Y1009650D01*
X900520Y763710D02*
X900684D01*
X918210Y822092D02*
Y932500D01*
X909828Y813710D02*
X918210Y822092D01*
X900520Y813710D02*
X909828D01*
X856020Y833210D02*
Y996468D01*
X846140Y1006348D02*
X856020Y996468D01*
X846140Y1006348D02*
Y1009650D01*
X653300Y572630D02*
X685800D01*
X697852Y560578D01*
X818388D01*
X838200Y580390D01*
X547370Y825210D02*
Y867570D01*
Y825210D02*
X565150Y807430D01*
X1103270Y788670D02*
X1137920D01*
X1147980Y798730D01*
X651180Y935040D02*
X683260D01*
X600710Y884570D02*
X651180Y935040D01*
X1034111Y931070D02*
X1073150D01*
X1033951Y931230D02*
X1034111Y931070D01*
X910172Y952500D02*
X918210D01*
X900520Y942848D02*
X910172Y952500D01*
X900520Y818710D02*
Y942848D01*
X594106Y924306D02*
X599440Y929640D01*
X594106Y877174D02*
Y924306D01*
Y877174D02*
X600710Y870570D01*
X774700Y637540D02*
Y662940D01*
X955040Y931230D02*
X990600D01*
X953770Y932500D02*
X955040Y931230D01*
X918210Y932500D02*
X953770D01*
X1103270Y655976D02*
Y686520D01*
X1101090Y653796D02*
X1103270Y655976D01*
X1101090Y623570D02*
Y653796D01*
Y598170D02*
Y623570D01*
X1155630Y738700D02*
X1178630D01*
X1147980Y863330D02*
Y871920D01*
X1146980Y862330D02*
X1147980Y863330D01*
X1146980Y853920D02*
Y862330D01*
Y847420D02*
Y853920D01*
X1103270Y686520D02*
Y776520D01*
X1173480Y772230D02*
Y800920D01*
Y772230D02*
X1178630Y767080D01*
Y738700D02*
Y767080D01*
X1161006Y852170D02*
X1173480D01*
X1159256Y853920D02*
X1161006Y852170D01*
X1146980Y853920D02*
X1159256D01*
X1173480Y852170D02*
Y880920D01*
Y800920D02*
Y829670D01*
Y852170D01*
X825500Y637540D02*
Y662940D01*
X923290Y598170D02*
Y623570D01*
X665480Y674530D02*
Y694530D01*
X633730Y783590D02*
Y811690D01*
X632460Y782320D02*
X633730Y783590D01*
X632460Y754220D02*
Y782320D01*
X601414Y811690D02*
X633730D01*
X597154Y807430D02*
X601414Y811690D01*
X565150Y807430D02*
X597154D01*
X565150Y739430D02*
Y807430D01*
X1058270Y687218D02*
Y776520D01*
X1041842Y1003300D02*
X1064420D01*
X1033272Y994730D02*
X1041842Y1003300D01*
X1010920Y994730D02*
X1033272D01*
D14*
X1010920Y1014730D02*
D03*
Y994730D02*
D03*
X547370Y887570D02*
D03*
Y867570D02*
D03*
X551180Y957420D02*
D03*
Y937420D02*
D03*
X683260Y935040D02*
D03*
Y955040D02*
D03*
X665480Y674530D02*
D03*
Y694530D02*
D03*
X600710Y957580D02*
D03*
Y937580D02*
D03*
X760730Y953770D02*
D03*
Y933770D02*
D03*
X840740Y952500D02*
D03*
Y932500D02*
D03*
X633730Y811690D02*
D03*
Y831690D02*
D03*
X1073150Y931070D02*
D03*
Y951070D02*
D03*
X990600Y931230D02*
D03*
Y951230D02*
D03*
X918210Y932500D02*
D03*
Y952500D02*
D03*
X1131570Y1010760D02*
D03*
Y990760D02*
D03*
X632460Y754220D02*
D03*
Y734220D02*
D03*
D15*
X600710Y884570D02*
D03*
Y870570D02*
D03*
D16*
X1155630Y738700D02*
D03*
X1178630D02*
D03*
D17*
X1167130Y683700D02*
D03*
D18*
X886020Y833210D02*
D03*
X881020D02*
D03*
X876020D02*
D03*
X871020D02*
D03*
X866020D02*
D03*
X861020D02*
D03*
X856020D02*
D03*
X851020D02*
D03*
X846020D02*
D03*
X841020D02*
D03*
X836020D02*
D03*
X831020D02*
D03*
Y749210D02*
D03*
X836020D02*
D03*
X841020D02*
D03*
X846020D02*
D03*
X851020D02*
D03*
X856020D02*
D03*
X861020D02*
D03*
X866020D02*
D03*
X871020D02*
D03*
X876020D02*
D03*
X881020D02*
D03*
X886020D02*
D03*
D19*
X816520Y818710D02*
D03*
Y813710D02*
D03*
Y808710D02*
D03*
Y803710D02*
D03*
Y798710D02*
D03*
Y793710D02*
D03*
Y788710D02*
D03*
Y783710D02*
D03*
Y778710D02*
D03*
Y773710D02*
D03*
Y768710D02*
D03*
Y763710D02*
D03*
X900520D02*
D03*
Y768710D02*
D03*
Y773710D02*
D03*
Y778710D02*
D03*
Y783710D02*
D03*
Y788710D02*
D03*
Y793710D02*
D03*
Y798710D02*
D03*
Y803710D02*
D03*
Y808710D02*
D03*
Y813710D02*
D03*
Y818710D02*
D03*
D20*
X716300Y595630D02*
D03*
D21*
X653300Y572630D02*
D03*
Y618630D02*
D03*
Y595630D02*
D03*
D22*
X565150Y739430D02*
D03*
Y807430D02*
D03*
D23*
X600870Y1010920D02*
D03*
X620870D02*
D03*
X707070Y1009650D02*
D03*
X687070D02*
D03*
X787240D02*
D03*
X767240D02*
D03*
X866140D02*
D03*
X846140D02*
D03*
X931070Y1010920D02*
D03*
X951070D02*
D03*
X1064420Y1003300D02*
D03*
X1084420D02*
D03*
D24*
X599440Y678730D02*
D03*
Y588730D02*
D03*
D25*
X1169670Y933690D02*
D03*
Y963690D02*
D03*
D26*
X1069020Y858520D02*
D03*
X1029020D02*
D03*
D27*
X1173480Y852170D02*
D03*
Y829670D02*
D03*
D28*
Y880920D02*
D03*
Y800920D02*
D03*
D29*
X1147980Y871920D02*
D03*
Y809920D02*
D03*
D30*
X1146980Y853920D02*
D03*
Y847420D02*
D03*
Y840920D02*
D03*
Y834420D02*
D03*
Y827920D02*
D03*
D31*
X1103270Y776520D02*
D03*
X1058270D02*
D03*
X1103270Y686520D02*
D03*
X1058270D02*
D03*
D56*
X1101090Y623570D02*
D03*
Y598170D02*
D03*
X1075690Y623570D02*
D03*
Y598170D02*
D03*
X1050290Y623570D02*
D03*
Y598170D02*
D03*
X1024890Y623570D02*
D03*
Y598170D02*
D03*
X923290Y623570D02*
D03*
X948690Y598170D02*
D03*
Y623570D02*
D03*
X974090Y598170D02*
D03*
Y623570D02*
D03*
X999490Y598170D02*
D03*
Y623570D02*
D03*
D57*
X923290Y598170D02*
D03*
D58*
X1184910Y1028700D02*
D03*
X542290Y1027430D02*
D03*
X1184910Y577850D02*
D03*
X542290Y575310D02*
D03*
D59*
X812800Y580390D02*
D03*
X787400D02*
D03*
X838200D02*
D03*
X774700Y662940D02*
D03*
X825500D02*
D03*
X800100D02*
D03*
Y637540D02*
D03*
X825500D02*
D03*
D60*
X762000Y580390D02*
D03*
X774700Y637540D02*
D03*
D61*
X972820Y989330D02*
D03*
X871220Y811530D02*
D03*
X857250Y772160D02*
D03*
X820420Y723900D02*
D03*
X855980Y800354D02*
D03*
X614426Y654050D02*
D03*
X633730Y608330D02*
D03*
X812800D02*
D03*
X832230Y699390D02*
D03*
X861060Y563880D02*
D03*
X1076960Y665480D02*
D03*
X789940Y775970D02*
D03*
X722630Y924306D02*
D03*
X795020Y932180D02*
D03*
X841248Y783336D02*
D03*
X938530Y901700D02*
D03*
X600870Y989678D02*
D03*
X722122D02*
D03*
X1028827Y716661D02*
D03*
X877316Y793242D02*
D03*
X580136Y919480D02*
D03*
X846328Y650240D02*
D03*
M02*
