G04*
G04 #@! TF.GenerationSoftware,Altium Limited,Altium Designer,20.0.13 (296)*
G04*
G04 Layer_Color=32768*
%FSLAX44Y44*%
%MOMM*%
G71*
G01*
G75*
%ADD62C,0.1000*%
%ADD63C,0.0500*%
D62*
X1007190Y610870D02*
X1017190D01*
X1012190Y605870D02*
Y615870D01*
X872190Y566870D02*
Y655870D01*
Y566870D02*
X1154430D01*
Y655870D01*
X872190D02*
X1154430D01*
X1003920Y987980D02*
Y1021480D01*
X1017920Y987980D02*
Y1021480D01*
X1003920Y987980D02*
X1017920D01*
X1003920Y1021480D02*
X1017920D01*
X1010920Y999730D02*
Y1009730D01*
X1005920Y1004730D02*
X1015920D01*
X600710Y872820D02*
Y882320D01*
X595960Y877570D02*
X605460D01*
X594460Y864320D02*
X606960D01*
Y890820D01*
X594460D02*
X606960D01*
X594460Y864320D02*
Y890820D01*
X1141130Y675700D02*
X1193130D01*
Y746700D01*
X1141130D02*
X1193130D01*
X1141130Y675700D02*
Y746700D01*
X1167130Y706200D02*
Y716200D01*
X1162130Y711200D02*
X1172130D01*
X806520Y843210D02*
X910520D01*
X806520Y739210D02*
X910520D01*
Y843210D01*
X806520Y739210D02*
Y843210D01*
X858520Y786210D02*
Y796210D01*
X853520Y791210D02*
X863520D01*
X795100Y580390D02*
X805100D01*
X800100Y575390D02*
Y585390D01*
X540370Y860570D02*
Y894570D01*
X554370Y860570D02*
Y894570D01*
X540370Y860570D02*
X554370D01*
X540370Y894570D02*
X554370D01*
X547370Y872570D02*
Y882570D01*
X542370Y877570D02*
X552370D01*
X643300Y563130D02*
Y628130D01*
X725800Y563130D02*
Y628130D01*
X643300D02*
X725800D01*
X643300Y563130D02*
X725800D01*
X685800Y588130D02*
Y603130D01*
X678300Y595630D02*
X693300D01*
X565150Y768430D02*
Y778430D01*
X560150Y773430D02*
X570150D01*
X540650Y726430D02*
X589650D01*
Y820430D01*
X540650D02*
X589650D01*
X540650Y726430D02*
Y820430D01*
X546180Y947420D02*
X556180D01*
X551180Y942420D02*
Y952420D01*
X544180Y930670D02*
X558180D01*
X544180Y964170D02*
X558180D01*
X544180Y930670D02*
Y964170D01*
X558180Y930670D02*
Y964170D01*
X690260Y928040D02*
Y962040D01*
X676260Y928040D02*
Y962040D01*
X690260D01*
X676260Y928040D02*
X690260D01*
X683260Y940040D02*
Y950040D01*
X678260Y945040D02*
X688260D01*
X672480Y667530D02*
Y701530D01*
X658480Y667530D02*
Y701530D01*
X672480D01*
X658480Y667530D02*
X672480D01*
X665480Y679530D02*
Y689530D01*
X660480Y684530D02*
X670480D01*
X595710Y947580D02*
X605710D01*
X600710Y942580D02*
Y952580D01*
X593710Y930830D02*
X607710D01*
X593710Y964330D02*
X607710D01*
X593710Y930830D02*
Y964330D01*
X607710Y930830D02*
Y964330D01*
X753730Y926770D02*
Y960770D01*
X767730Y926770D02*
Y960770D01*
X753730Y926770D02*
X767730D01*
X753730Y960770D02*
X767730D01*
X760730Y938770D02*
Y948770D01*
X755730Y943770D02*
X765730D01*
X610870Y1005920D02*
Y1015920D01*
X605870Y1010920D02*
X615870D01*
X627620Y1003920D02*
Y1017920D01*
X594120Y1003920D02*
Y1017920D01*
Y1003920D02*
X627620D01*
X594120Y1017920D02*
X627620D01*
X833740Y925500D02*
Y959500D01*
X847740Y925500D02*
Y959500D01*
X833740Y925500D02*
X847740D01*
X833740Y959500D02*
X847740D01*
X840740Y937500D02*
Y947500D01*
X835740Y942500D02*
X845740D01*
X589440Y633730D02*
X609440D01*
X599440Y623730D02*
Y643730D01*
X574440Y706230D02*
X624440D01*
X574440Y561230D02*
X624440D01*
X574440D02*
Y706230D01*
X624440Y561230D02*
Y706230D01*
X640730Y804690D02*
Y838690D01*
X626730Y804690D02*
Y838690D01*
X640730D01*
X626730Y804690D02*
X640730D01*
X633730Y816690D02*
Y826690D01*
X628730Y821690D02*
X638730D01*
X1080150Y924070D02*
Y958070D01*
X1066150Y924070D02*
Y958070D01*
X1080150D01*
X1066150Y924070D02*
X1080150D01*
X1073150Y936070D02*
Y946070D01*
X1068150Y941070D02*
X1078150D01*
X997600Y924230D02*
Y958230D01*
X983600Y924230D02*
Y958230D01*
X997600D01*
X983600Y924230D02*
X997600D01*
X990600Y936230D02*
Y946230D01*
X985600Y941230D02*
X995600D01*
X925210Y925500D02*
Y959500D01*
X911210Y925500D02*
Y959500D01*
X925210D01*
X911210Y925500D02*
X925210D01*
X918210Y937500D02*
Y947500D01*
X913210Y942500D02*
X923210D01*
X795100Y650240D02*
X805100D01*
X800100Y645240D02*
Y655240D01*
X697070Y1004650D02*
Y1014650D01*
X692070Y1009650D02*
X702070D01*
X680320Y1002650D02*
Y1016650D01*
X713820Y1002650D02*
Y1016650D01*
X680320D02*
X713820D01*
X680320Y1002650D02*
X713820D01*
X777240Y1004650D02*
Y1014650D01*
X772240Y1009650D02*
X782240D01*
X760490Y1002650D02*
Y1016650D01*
X793990Y1002650D02*
Y1016650D01*
X760490D02*
X793990D01*
X760490Y1002650D02*
X793990D01*
X1179670Y926690D02*
Y970690D01*
X1159670Y926690D02*
Y970690D01*
X1179670D01*
X1159670Y926690D02*
X1179670D01*
X1169670Y943690D02*
Y953690D01*
X1164670Y948690D02*
X1174670D01*
X1126570Y1000760D02*
X1136570D01*
X1131570Y995760D02*
Y1005760D01*
X1124570Y984010D02*
X1138570D01*
X1124570Y1017510D02*
X1138570D01*
X1124570Y984010D02*
Y1017510D01*
X1138570Y984010D02*
Y1017510D01*
X1049020Y853520D02*
Y863520D01*
X1044020Y858520D02*
X1054020D01*
X1080020Y843520D02*
Y873520D01*
X1018020D02*
X1080020D01*
X1018020Y843520D02*
Y873520D01*
Y843520D02*
X1080020D01*
X1137980Y789920D02*
Y891920D01*
X1195980D01*
Y789920D02*
Y891920D01*
X1137980Y789920D02*
X1195980D01*
X856140Y1004650D02*
Y1014650D01*
X851140Y1009650D02*
X861140D01*
X839390Y1002650D02*
Y1016650D01*
X872890Y1002650D02*
Y1016650D01*
X839390D02*
X872890D01*
X839390Y1002650D02*
X872890D01*
X1111770Y674520D02*
Y787520D01*
X1049770Y674520D02*
X1111770D01*
X1049770D02*
Y787520D01*
X1111770D01*
X1075770Y731520D02*
X1085770D01*
X1080770Y726520D02*
Y736520D01*
X941070Y1005920D02*
Y1015920D01*
X936070Y1010920D02*
X946070D01*
X957820Y1003920D02*
Y1017920D01*
X924320Y1003920D02*
Y1017920D01*
Y1003920D02*
X957820D01*
X924320Y1017920D02*
X957820D01*
X625460Y727220D02*
Y761220D01*
X639460Y727220D02*
Y761220D01*
X625460Y727220D02*
X639460D01*
X625460Y761220D02*
X639460D01*
X632460Y739220D02*
Y749220D01*
X627460Y744220D02*
X637460D01*
X1074420Y998300D02*
Y1008300D01*
X1069420Y1003300D02*
X1079420D01*
X1091170Y996300D02*
Y1010300D01*
X1057670Y996300D02*
Y1010300D01*
Y996300D02*
X1091170D01*
X1057670Y1010300D02*
X1091170D01*
D63*
X749300Y593090D02*
X850900D01*
Y567690D02*
Y593090D01*
X749300Y567690D02*
X850900D01*
X749300D02*
Y593090D01*
X762000Y624840D02*
X838200D01*
Y675640D01*
X762000D02*
X838200D01*
X762000Y624840D02*
Y675640D01*
M02*
