G04*
G04 #@! TF.GenerationSoftware,Altium Limited,Altium Designer,20.0.13 (296)*
G04*
G04 Layer_Color=65535*
%FSLAX44Y44*%
%MOMM*%
G71*
G01*
G75*
%ADD10C,0.2500*%
%ADD11C,0.5000*%
%ADD12C,0.2000*%
%ADD13C,0.2540*%
D10*
X893770Y833210D02*
G03*
X893770Y833210I-1250J0D01*
G01*
X668300Y628130D02*
X703300D01*
X668300Y563130D02*
Y628130D01*
Y563130D02*
X703300D01*
Y628130D01*
D11*
X1139480Y792420D02*
D03*
D12*
X872190Y566870D02*
Y655870D01*
Y566870D02*
X1154430D01*
Y655870D01*
X872190D02*
X1154430D01*
X1002670Y1021730D02*
X1019170D01*
X1002670Y987730D02*
X1019170D01*
Y1021730D01*
X1002670Y987730D02*
Y1021730D01*
X606960Y864320D02*
Y890820D01*
X594460Y864320D02*
Y890820D01*
X606960D01*
X594460Y864320D02*
X606960D01*
X1141130Y688200D02*
X1154130D01*
X1141130Y735200D02*
X1146130D01*
X1141130Y688200D02*
Y735200D01*
X1193130Y688200D02*
Y735200D01*
X1188130D02*
X1193130D01*
X1180130Y688200D02*
X1193130D01*
X828520Y821210D02*
X888520D01*
X828520Y761210D02*
X888520D01*
Y821210D01*
X828520Y761210D02*
Y821210D01*
X749300Y593090D02*
X774700D01*
Y567690D02*
Y593090D01*
X749300Y567690D02*
Y593090D01*
X774700Y586740D02*
X781050Y593090D01*
X793750D01*
X800100Y586740D01*
Y574040D02*
Y586740D01*
X793750Y567690D02*
X800100Y574040D01*
X781050Y567690D02*
X793750D01*
X774700Y574040D02*
X781050Y567690D01*
X749300D02*
X774700D01*
X800100Y574040D02*
X806450Y567690D01*
X819150D01*
X825500Y574040D01*
Y586740D01*
X819150Y593090D02*
X825500Y586740D01*
X806450Y593090D02*
X819150D01*
X800100Y586740D02*
X806450Y593090D01*
X825500Y574040D02*
X831850Y567690D01*
X844550D01*
X850900Y574040D01*
Y586740D01*
X844550Y593090D02*
X850900Y586740D01*
X831850Y593090D02*
X844550D01*
X825500Y586740D02*
X831850Y593090D01*
X539120Y894570D02*
X555620D01*
X539120Y860570D02*
X555620D01*
Y894570D01*
X539120Y860570D02*
Y894570D01*
X541650Y753180D02*
X588650D01*
X541650Y727430D02*
Y819430D01*
X588650D01*
Y727430D02*
Y819430D01*
X541650Y727430D02*
X588650D01*
X559430Y930420D02*
Y964420D01*
X542930Y930420D02*
Y964420D01*
X559430D01*
X542930Y930420D02*
X559430D01*
X675010Y928040D02*
X691510D01*
X675010Y962040D02*
X691510D01*
X675010Y928040D02*
Y962040D01*
X691510Y928040D02*
Y962040D01*
X657230Y667530D02*
X673730D01*
X657230Y701530D02*
X673730D01*
X657230Y667530D02*
Y701530D01*
X673730Y667530D02*
Y701530D01*
X608960Y930580D02*
Y964580D01*
X592460Y930580D02*
Y964580D01*
X608960D01*
X592460Y930580D02*
X608960D01*
X752480Y960770D02*
X768980D01*
X752480Y926770D02*
X768980D01*
Y960770D01*
X752480Y926770D02*
Y960770D01*
X593870Y1019170D02*
X627870D01*
X593870Y1002670D02*
X627870D01*
X593870D02*
Y1019170D01*
X627870Y1002670D02*
Y1019170D01*
X832490Y959500D02*
X848990D01*
X832490Y925500D02*
X848990D01*
Y959500D01*
X832490Y925500D02*
Y959500D01*
X574440Y569730D02*
X591440D01*
X574440D02*
Y697730D01*
X591440D01*
X607440Y569730D02*
X624440D01*
Y697730D01*
X607440D02*
X624440D01*
X625480Y804690D02*
X641980D01*
X625480Y838690D02*
X641980D01*
X625480Y804690D02*
Y838690D01*
X641980Y804690D02*
Y838690D01*
X1064900Y924070D02*
X1081400D01*
X1064900Y958070D02*
X1081400D01*
X1064900Y924070D02*
Y958070D01*
X1081400Y924070D02*
Y958070D01*
X982350Y924230D02*
X998850D01*
X982350Y958230D02*
X998850D01*
X982350Y924230D02*
Y958230D01*
X998850Y924230D02*
Y958230D01*
X909960Y925500D02*
X926460D01*
X909960Y959500D02*
X926460D01*
X909960Y925500D02*
Y959500D01*
X926460Y925500D02*
Y959500D01*
X819150Y624840D02*
X831850D01*
X793750D02*
X806450D01*
X812800Y656590D02*
Y669290D01*
X819150Y675640D01*
X831850D01*
X838200Y669290D01*
Y656590D02*
Y669290D01*
X831850Y650240D02*
X838200Y656590D01*
X812800D02*
X819150Y650240D01*
X793750D02*
X806450D01*
X812800Y656590D01*
X806450Y675640D02*
X812800Y669290D01*
X793750Y675640D02*
X806450D01*
X787400Y669290D02*
X793750Y675640D01*
X768350D02*
X781050D01*
X762000Y669290D02*
X768350Y675640D01*
X762000Y656590D02*
Y669290D01*
X787400Y656590D02*
Y669290D01*
X781050Y675640D02*
X787400Y669290D01*
X768350Y675640D02*
X781050D01*
X768350D02*
X781050D01*
X806450Y650240D02*
X812800Y643890D01*
X806450Y624840D02*
X812800Y631190D01*
X793750Y675640D02*
X806450D01*
X812800Y631190D02*
X819150Y624840D01*
Y675640D02*
X831850D01*
Y624840D02*
X838200Y631190D01*
Y643890D01*
X831850Y650240D02*
X838200Y643890D01*
X819150Y650240D02*
X831850D01*
X812800Y643890D02*
X819150Y650240D01*
X812800Y631190D02*
Y643890D01*
X787400Y631190D02*
X793750Y624840D01*
X787400Y643890D02*
X793750Y650240D01*
X762000Y624840D02*
Y650240D01*
X787400Y624840D02*
Y643890D01*
X762000Y650240D02*
X781050D01*
X787400Y656590D01*
X762000D02*
X768350Y650240D01*
X787400Y656590D02*
X793750Y650240D01*
X762000Y624840D02*
X787400D01*
X680070Y1001400D02*
X714070D01*
X680070Y1017900D02*
X714070D01*
Y1001400D02*
Y1017900D01*
X680070Y1001400D02*
Y1017900D01*
X760240Y1001400D02*
X794240D01*
X760240Y1017900D02*
X794240D01*
Y1001400D02*
Y1017900D01*
X760240Y1001400D02*
Y1017900D01*
X1159670Y956190D02*
X1179670D01*
X1159670Y926690D02*
X1179670D01*
X1159670Y970690D02*
X1179670D01*
X1159670Y926690D02*
Y970690D01*
X1179670Y926690D02*
Y970690D01*
X1139820Y983760D02*
Y1017760D01*
X1123320Y983760D02*
Y1017760D01*
X1139820D01*
X1123320Y983760D02*
X1139820D01*
X1018020Y873020D02*
X1079520D01*
X1018020Y844020D02*
Y873020D01*
Y844020D02*
X1079520D01*
Y873020D01*
X1041020Y844020D02*
Y873020D01*
X1137980Y884420D02*
X1159480D01*
X1137980Y858420D02*
Y884420D01*
Y797420D02*
Y823420D01*
Y797420D02*
X1159480D01*
X839140Y1001400D02*
X873140D01*
X839140Y1017900D02*
X873140D01*
Y1001400D02*
Y1017900D01*
X839140Y1001400D02*
Y1017900D01*
X1110770Y701520D02*
Y761520D01*
X1070770Y776520D02*
X1090770D01*
X1050770Y701520D02*
Y761520D01*
X1070770Y686520D02*
X1090770D01*
X924070Y1019170D02*
X958070D01*
X924070Y1002670D02*
X958070D01*
X924070D02*
Y1019170D01*
X958070Y1002670D02*
Y1019170D01*
X624210Y761220D02*
X640710D01*
X624210Y727220D02*
X640710D01*
Y761220D01*
X624210Y727220D02*
Y761220D01*
X1057420Y1011550D02*
X1091420D01*
X1057420Y995050D02*
X1091420D01*
X1057420D02*
Y1011550D01*
X1091420Y995050D02*
Y1011550D01*
D13*
X1142619Y754761D02*
Y769996D01*
X1150237D01*
X1152776Y767457D01*
Y762378D01*
X1150237Y759839D01*
X1142619D01*
X1147697D02*
X1152776Y754761D01*
X1157854D02*
Y769996D01*
X1165472D01*
X1168011Y767457D01*
Y762378D01*
X1165472Y759839D01*
X1157854D01*
X1162932D02*
X1168011Y754761D01*
X873764Y679447D02*
X883921Y664212D01*
Y679447D02*
X873764Y664212D01*
X899156D02*
X888999D01*
X899156Y674369D01*
Y676908D01*
X896617Y679447D01*
X891538D01*
X888999Y676908D01*
X1139444Y915157D02*
X1149601Y899922D01*
Y915157D02*
X1139444Y899922D01*
X1162297D02*
Y915157D01*
X1154679Y907540D01*
X1164836D01*
X763524Y699511D02*
X773681Y684276D01*
Y699511D02*
X763524Y684276D01*
X778759Y696972D02*
X781298Y699511D01*
X786377D01*
X788916Y696972D01*
Y694433D01*
X786377Y691893D01*
X783837D01*
X786377D01*
X788916Y689354D01*
Y686815D01*
X786377Y684276D01*
X781298D01*
X778759Y686815D01*
X750824Y616961D02*
X760981Y601726D01*
Y616961D02*
X750824Y601726D01*
X766059D02*
X771137D01*
X768598D01*
Y616961D01*
X766059Y614422D01*
X1161288Y994659D02*
Y984502D01*
X1166366Y979424D01*
X1171445Y984502D01*
Y994659D01*
X1176523D02*
Y979424D01*
X1184141D01*
X1186680Y981963D01*
Y992120D01*
X1184141Y994659D01*
X1176523D01*
X1191758Y992120D02*
X1194297Y994659D01*
X1199376D01*
X1201915Y992120D01*
Y981963D01*
X1199376Y979424D01*
X1194297D01*
X1191758Y981963D01*
Y992120D01*
X1019556Y896869D02*
Y886712D01*
X1024634Y881634D01*
X1029713Y886712D01*
Y896869D01*
X1034791D02*
Y881634D01*
X1042409D01*
X1044948Y884173D01*
Y894330D01*
X1042409Y896869D01*
X1034791D01*
X1050026Y881634D02*
X1055105D01*
X1052565D01*
Y896869D01*
X1050026Y894330D01*
X1061971Y808478D02*
X1059432Y811017D01*
X1054353D01*
X1051814Y808478D01*
Y805939D01*
X1054353Y803400D01*
X1059432D01*
X1061971Y800860D01*
Y798321D01*
X1059432Y795782D01*
X1054353D01*
X1051814Y798321D01*
X1067049Y811017D02*
Y795782D01*
X1074667D01*
X1077206Y798321D01*
Y800860D01*
X1074667Y803400D01*
X1067049D01*
X1074667D01*
X1077206Y805939D01*
Y808478D01*
X1074667Y811017D01*
X1067049D01*
X1082284Y795782D02*
X1087363D01*
X1084823D01*
Y811017D01*
X1082284Y808478D01*
X1124966Y1026414D02*
Y1041649D01*
X1132583D01*
X1135123Y1039110D01*
Y1034032D01*
X1132583Y1031492D01*
X1124966D01*
X1130044D02*
X1135123Y1026414D01*
X1140201D02*
X1145279D01*
X1142740D01*
Y1041649D01*
X1140201Y1039110D01*
X1152897D02*
X1155436Y1041649D01*
X1160515D01*
X1163054Y1039110D01*
Y1028953D01*
X1160515Y1026414D01*
X1155436D01*
X1152897Y1028953D01*
Y1039110D01*
X1058926Y1020064D02*
Y1035299D01*
X1066544D01*
X1069083Y1032760D01*
Y1027682D01*
X1066544Y1025142D01*
X1058926D01*
X1064004D02*
X1069083Y1020064D01*
X1074161Y1022603D02*
X1076700Y1020064D01*
X1081779D01*
X1084318Y1022603D01*
Y1032760D01*
X1081779Y1035299D01*
X1076700D01*
X1074161Y1032760D01*
Y1030221D01*
X1076700Y1027682D01*
X1084318D01*
X998224Y1030133D02*
Y1045368D01*
X1005842D01*
X1008381Y1042828D01*
Y1037750D01*
X1005842Y1035211D01*
X998224D01*
X1003303D02*
X1008381Y1030133D01*
X1013459Y1042828D02*
X1015998Y1045368D01*
X1021077D01*
X1023616Y1042828D01*
Y1040289D01*
X1021077Y1037750D01*
X1023616Y1035211D01*
Y1032672D01*
X1021077Y1030133D01*
X1015998D01*
X1013459Y1032672D01*
Y1035211D01*
X1015998Y1037750D01*
X1013459Y1040289D01*
Y1042828D01*
X1015998Y1037750D02*
X1021077D01*
X925576Y1027684D02*
Y1042919D01*
X933194D01*
X935733Y1040380D01*
Y1035302D01*
X933194Y1032762D01*
X925576D01*
X930654D02*
X935733Y1027684D01*
X940811Y1042919D02*
X950968D01*
Y1040380D01*
X940811Y1030223D01*
Y1027684D01*
X840740Y1026414D02*
Y1041649D01*
X848357D01*
X850897Y1039110D01*
Y1034032D01*
X848357Y1031492D01*
X840740D01*
X845818D02*
X850897Y1026414D01*
X866132Y1041649D02*
X861053Y1039110D01*
X855975Y1034032D01*
Y1028953D01*
X858514Y1026414D01*
X863593D01*
X866132Y1028953D01*
Y1031492D01*
X863593Y1034032D01*
X855975D01*
X761746Y1026414D02*
Y1041649D01*
X769363D01*
X771903Y1039110D01*
Y1034032D01*
X769363Y1031492D01*
X761746D01*
X766824D02*
X771903Y1026414D01*
X787138Y1041649D02*
X776981D01*
Y1034032D01*
X782059Y1036571D01*
X784599D01*
X787138Y1034032D01*
Y1028953D01*
X784599Y1026414D01*
X779520D01*
X776981Y1028953D01*
X681576Y1026414D02*
Y1041649D01*
X689193D01*
X691733Y1039110D01*
Y1034032D01*
X689193Y1031492D01*
X681576D01*
X686654D02*
X691733Y1026414D01*
X704429D02*
Y1041649D01*
X696811Y1034032D01*
X706968D01*
X595376Y1027684D02*
Y1042919D01*
X602994D01*
X605533Y1040380D01*
Y1035302D01*
X602994Y1032762D01*
X595376D01*
X600454D02*
X605533Y1027684D01*
X610611Y1040380D02*
X613150Y1042919D01*
X618229D01*
X620768Y1040380D01*
Y1037841D01*
X618229Y1035302D01*
X615689D01*
X618229D01*
X620768Y1032762D01*
Y1030223D01*
X618229Y1027684D01*
X613150D01*
X610611Y1030223D01*
X594106Y973234D02*
Y988469D01*
X601724D01*
X604263Y985930D01*
Y980852D01*
X601724Y978312D01*
X594106D01*
X599184D02*
X604263Y973234D01*
X619498D02*
X609341D01*
X619498Y983391D01*
Y985930D01*
X616959Y988469D01*
X611880D01*
X609341Y985930D01*
X544576Y972980D02*
Y988215D01*
X552193D01*
X554733Y985676D01*
Y980598D01*
X552193Y978058D01*
X544576D01*
X549654D02*
X554733Y972980D01*
X559811D02*
X564889D01*
X562350D01*
Y988215D01*
X559811Y985676D01*
X645320Y652267D02*
Y637032D01*
X652937D01*
X655477Y639571D01*
Y649728D01*
X652937Y652267D01*
X645320D01*
X660555Y637032D02*
Y647189D01*
X665633Y652267D01*
X670712Y647189D01*
Y637032D01*
Y644650D01*
X660555D01*
X675790Y637032D02*
X680869D01*
X678329D01*
Y652267D01*
X675790Y649728D01*
X808482Y866643D02*
Y851408D01*
X816099D01*
X818639Y853947D01*
Y864104D01*
X816099Y866643D01*
X808482D01*
X823717Y851408D02*
X828795D01*
X826256D01*
Y866643D01*
X823717Y864104D01*
X636013Y782476D02*
X633474Y785015D01*
X628395D01*
X625856Y782476D01*
Y772319D01*
X628395Y769780D01*
X633474D01*
X636013Y772319D01*
X641091Y769780D02*
X646169D01*
X643630D01*
Y785015D01*
X641091Y782476D01*
X663944Y769780D02*
X653787D01*
X663944Y779937D01*
Y782476D01*
X661404Y785015D01*
X656326D01*
X653787Y782476D01*
X637283Y859974D02*
X634743Y862513D01*
X629665D01*
X627126Y859974D01*
Y849817D01*
X629665Y847278D01*
X634743D01*
X637283Y849817D01*
X642361Y847278D02*
X647439D01*
X644900D01*
Y862513D01*
X642361Y859974D01*
X655057Y847278D02*
X660135D01*
X657596D01*
Y862513D01*
X655057Y859974D01*
X1076703Y979420D02*
X1074164Y981959D01*
X1069085D01*
X1066546Y979420D01*
Y969263D01*
X1069085Y966724D01*
X1074164D01*
X1076703Y969263D01*
X1081781Y966724D02*
X1086859D01*
X1084320D01*
Y981959D01*
X1081781Y979420D01*
X1094477D02*
X1097016Y981959D01*
X1102094D01*
X1104634Y979420D01*
Y969263D01*
X1102094Y966724D01*
X1097016D01*
X1094477Y969263D01*
Y979420D01*
X994153D02*
X991613Y981959D01*
X986535D01*
X983996Y979420D01*
Y969263D01*
X986535Y966724D01*
X991613D01*
X994153Y969263D01*
X999231D02*
X1001770Y966724D01*
X1006849D01*
X1009388Y969263D01*
Y979420D01*
X1006849Y981959D01*
X1001770D01*
X999231Y979420D01*
Y976881D01*
X1001770Y974342D01*
X1009388D01*
X921763Y980756D02*
X919223Y983295D01*
X914145D01*
X911606Y980756D01*
Y970599D01*
X914145Y968060D01*
X919223D01*
X921763Y970599D01*
X926841Y980756D02*
X929380Y983295D01*
X934459D01*
X936998Y980756D01*
Y978217D01*
X934459Y975678D01*
X936998Y973138D01*
Y970599D01*
X934459Y968060D01*
X929380D01*
X926841Y970599D01*
Y973138D01*
X929380Y975678D01*
X926841Y978217D01*
Y980756D01*
X929380Y975678D02*
X934459D01*
X844293Y980756D02*
X841753Y983295D01*
X836675D01*
X834136Y980756D01*
Y970599D01*
X836675Y968060D01*
X841753D01*
X844293Y970599D01*
X849371Y983295D02*
X859528D01*
Y980756D01*
X849371Y970599D01*
Y968060D01*
X764283Y981960D02*
X761743Y984499D01*
X756665D01*
X754126Y981960D01*
Y971803D01*
X756665Y969264D01*
X761743D01*
X764283Y971803D01*
X779518Y984499D02*
X774439Y981960D01*
X769361Y976881D01*
Y971803D01*
X771900Y969264D01*
X776979D01*
X779518Y971803D01*
Y974342D01*
X776979Y976881D01*
X769361D01*
X686813Y983230D02*
X684274Y985769D01*
X679195D01*
X676656Y983230D01*
Y973073D01*
X679195Y970534D01*
X684274D01*
X686813Y973073D01*
X702048Y985769D02*
X691891D01*
Y978151D01*
X696969Y980691D01*
X699509D01*
X702048Y978151D01*
Y973073D01*
X699509Y970534D01*
X694430D01*
X691891Y973073D01*
X669033Y722786D02*
X666494Y725325D01*
X661415D01*
X658876Y722786D01*
Y712629D01*
X661415Y710090D01*
X666494D01*
X669033Y712629D01*
X681729Y710090D02*
Y725325D01*
X674111Y717708D01*
X684268D01*
X606041Y912252D02*
X603502Y914791D01*
X598423D01*
X595884Y912252D01*
Y902095D01*
X598423Y899556D01*
X603502D01*
X606041Y902095D01*
X611119Y912252D02*
X613658Y914791D01*
X618737D01*
X621276Y912252D01*
Y909713D01*
X618737Y907174D01*
X616197D01*
X618737D01*
X621276Y904635D01*
Y902095D01*
X618737Y899556D01*
X613658D01*
X611119Y902095D01*
X552955Y841244D02*
X550415Y843783D01*
X545337D01*
X542798Y841244D01*
Y831087D01*
X545337Y828548D01*
X550415D01*
X552955Y831087D01*
X568190Y828548D02*
X558033D01*
X568190Y838705D01*
Y841244D01*
X565651Y843783D01*
X560572D01*
X558033Y841244D01*
X550923Y915920D02*
X548383Y918459D01*
X543305D01*
X540766Y915920D01*
Y905763D01*
X543305Y903224D01*
X548383D01*
X550923Y905763D01*
X556001Y903224D02*
X561079D01*
X558540D01*
Y918459D01*
X556001Y915920D01*
X560832Y688848D02*
X565910D01*
X563371D01*
Y704083D01*
X560832Y701544D01*
M02*
