G04*
G04 #@! TF.GenerationSoftware,Altium Limited,Altium Designer,20.0.13 (296)*
G04*
G04 Layer_Color=8388736*
%FSLAX44Y44*%
%MOMM*%
G71*
G01*
G75*
%ADD32R,1.4532X1.2032*%
%ADD33R,1.0532X1.0532*%
%ADD34R,1.5032X1.5032*%
%ADD35R,2.2032X1.5032*%
%ADD36O,0.5032X1.6032*%
%ADD37O,1.6032X0.5032*%
%ADD38R,1.7032X3.5032*%
%ADD39R,1.7032X1.2032*%
%ADD40R,4.5032X2.2032*%
%ADD41R,1.2032X1.4532*%
%ADD42R,1.0032X5.2032*%
%ADD43R,1.8032X1.2032*%
%ADD44R,1.9032X2.7032*%
%ADD45R,2.1032X1.9532*%
%ADD46R,2.1032X2.0032*%
%ADD47R,1.8032X2.3032*%
%ADD48R,1.6032X0.6032*%
%ADD49R,1.6032X2.3032*%
%ADD50C,2.0032*%
%ADD51P,2.1683X8X22.5*%
%ADD52C,1.7272*%
%ADD53C,2.2032*%
%ADD54R,2.2032X2.2032*%
%ADD55C,1.4732*%
D32*
X1010920Y1014730D02*
D03*
Y994730D02*
D03*
X547370Y887570D02*
D03*
Y867570D02*
D03*
X551180Y957420D02*
D03*
Y937420D02*
D03*
X683260Y935040D02*
D03*
Y955040D02*
D03*
X665480Y674530D02*
D03*
Y694530D02*
D03*
X600710Y957580D02*
D03*
Y937580D02*
D03*
X760730Y953770D02*
D03*
Y933770D02*
D03*
X840740Y952500D02*
D03*
Y932500D02*
D03*
X633730Y811690D02*
D03*
Y831690D02*
D03*
X1073150Y931070D02*
D03*
Y951070D02*
D03*
X990600Y931230D02*
D03*
Y951230D02*
D03*
X918210Y932500D02*
D03*
Y952500D02*
D03*
X1131570Y1010760D02*
D03*
Y990760D02*
D03*
X632460Y754220D02*
D03*
Y734220D02*
D03*
D33*
X600710Y884570D02*
D03*
Y870570D02*
D03*
D34*
X1155630Y738700D02*
D03*
X1178630D02*
D03*
D35*
X1167130Y683700D02*
D03*
D36*
X886020Y833210D02*
D03*
X881020D02*
D03*
X876020D02*
D03*
X871020D02*
D03*
X866020D02*
D03*
X861020D02*
D03*
X856020D02*
D03*
X851020D02*
D03*
X846020D02*
D03*
X841020D02*
D03*
X836020D02*
D03*
X831020D02*
D03*
Y749210D02*
D03*
X836020D02*
D03*
X841020D02*
D03*
X846020D02*
D03*
X851020D02*
D03*
X856020D02*
D03*
X861020D02*
D03*
X866020D02*
D03*
X871020D02*
D03*
X876020D02*
D03*
X881020D02*
D03*
X886020D02*
D03*
D37*
X816520Y818710D02*
D03*
Y813710D02*
D03*
Y808710D02*
D03*
Y803710D02*
D03*
Y798710D02*
D03*
Y793710D02*
D03*
Y788710D02*
D03*
Y783710D02*
D03*
Y778710D02*
D03*
Y773710D02*
D03*
Y768710D02*
D03*
Y763710D02*
D03*
X900520D02*
D03*
Y768710D02*
D03*
Y773710D02*
D03*
Y778710D02*
D03*
Y783710D02*
D03*
Y788710D02*
D03*
Y793710D02*
D03*
Y798710D02*
D03*
Y803710D02*
D03*
Y808710D02*
D03*
Y813710D02*
D03*
Y818710D02*
D03*
D38*
X716300Y595630D02*
D03*
D39*
X653300Y572630D02*
D03*
Y618630D02*
D03*
Y595630D02*
D03*
D40*
X565150Y739430D02*
D03*
Y807430D02*
D03*
D41*
X600870Y1010920D02*
D03*
X620870D02*
D03*
X707070Y1009650D02*
D03*
X687070D02*
D03*
X787240D02*
D03*
X767240D02*
D03*
X866140D02*
D03*
X846140D02*
D03*
X931070Y1010920D02*
D03*
X951070D02*
D03*
X1064420Y1003300D02*
D03*
X1084420D02*
D03*
D42*
X599440Y678730D02*
D03*
Y588730D02*
D03*
D43*
X1169670Y933690D02*
D03*
Y963690D02*
D03*
D44*
X1069020Y858520D02*
D03*
X1029020D02*
D03*
D45*
X1173480Y852170D02*
D03*
Y829670D02*
D03*
D46*
Y880920D02*
D03*
Y800920D02*
D03*
D47*
X1147980Y871920D02*
D03*
Y809920D02*
D03*
D48*
X1146980Y853920D02*
D03*
Y847420D02*
D03*
Y840920D02*
D03*
Y834420D02*
D03*
Y827920D02*
D03*
D49*
X1103270Y776520D02*
D03*
X1058270D02*
D03*
X1103270Y686520D02*
D03*
X1058270D02*
D03*
D50*
X1101090Y623570D02*
D03*
Y598170D02*
D03*
X1075690Y623570D02*
D03*
Y598170D02*
D03*
X1050290Y623570D02*
D03*
Y598170D02*
D03*
X1024890Y623570D02*
D03*
Y598170D02*
D03*
X923290Y623570D02*
D03*
X948690Y598170D02*
D03*
Y623570D02*
D03*
X974090Y598170D02*
D03*
Y623570D02*
D03*
X999490Y598170D02*
D03*
Y623570D02*
D03*
D51*
X923290Y598170D02*
D03*
D52*
X1184910Y1028700D02*
D03*
X542290Y1027430D02*
D03*
X1184910Y577850D02*
D03*
X542290Y575310D02*
D03*
D53*
X812800Y580390D02*
D03*
X787400D02*
D03*
X838200D02*
D03*
X774700Y662940D02*
D03*
X825500D02*
D03*
X800100D02*
D03*
Y637540D02*
D03*
X825500D02*
D03*
D54*
X762000Y580390D02*
D03*
X774700Y637540D02*
D03*
D55*
X972820Y989330D02*
D03*
X871220Y811530D02*
D03*
X857250Y772160D02*
D03*
X820420Y723900D02*
D03*
X855980Y800354D02*
D03*
X614426Y654050D02*
D03*
X633730Y608330D02*
D03*
X812800D02*
D03*
X832230Y699390D02*
D03*
X861060Y563880D02*
D03*
X1076960Y665480D02*
D03*
X789940Y775970D02*
D03*
X722630Y924306D02*
D03*
X795020Y932180D02*
D03*
X841248Y783336D02*
D03*
X938530Y901700D02*
D03*
X600870Y989678D02*
D03*
X722122D02*
D03*
X1028827Y716661D02*
D03*
X877316Y793242D02*
D03*
X580136Y919480D02*
D03*
X846328Y650240D02*
D03*
M02*
