G04*
G04 #@! TF.GenerationSoftware,Altium Limited,Altium Designer,20.0.13 (296)*
G04*
G04 Layer_Color=32768*
%FSLAX44Y44*%
%MOMM*%
G71*
G01*
G75*
%ADD63C,0.0500*%
G36*
X690397Y614441D02*
X690383Y614191D01*
X690369Y613914D01*
X690341Y613637D01*
X690300Y613359D01*
X690258Y613124D01*
Y613110D01*
X690244Y613082D01*
Y613040D01*
X690217Y612985D01*
X690175Y612832D01*
X690106Y612638D01*
X690009Y612416D01*
X689884Y612180D01*
X689745Y611945D01*
X689565Y611723D01*
X689551Y611709D01*
X689537Y611695D01*
X689495Y611654D01*
X689454Y611598D01*
X689315Y611459D01*
X689121Y611293D01*
X688885Y611113D01*
X688608Y610918D01*
X688289Y610738D01*
X687928Y610586D01*
X687915D01*
X687887Y610572D01*
X687831Y610544D01*
X687748Y610530D01*
X687651Y610489D01*
X687540Y610461D01*
X687415Y610433D01*
X687263Y610391D01*
X687110Y610350D01*
X686930Y610322D01*
X686542Y610253D01*
X686112Y610211D01*
X685640Y610197D01*
X685626D01*
X685599D01*
X685529D01*
X685460D01*
X685363Y610211D01*
X685252D01*
X684988Y610225D01*
X684683Y610267D01*
X684364Y610308D01*
X684031Y610378D01*
X683699Y610461D01*
X683685D01*
X683657Y610475D01*
X683615Y610489D01*
X683560Y610502D01*
X683407Y610558D01*
X683213Y610641D01*
X682991Y610724D01*
X682769Y610835D01*
X682534Y610974D01*
X682312Y611113D01*
X682284Y611127D01*
X682215Y611182D01*
X682117Y611265D01*
X681993Y611376D01*
X681854Y611501D01*
X681715Y611654D01*
X681563Y611806D01*
X681438Y611986D01*
X681424Y612014D01*
X681383Y612070D01*
X681327Y612167D01*
X681258Y612305D01*
X681174Y612472D01*
X681105Y612666D01*
X681022Y612888D01*
X680953Y613137D01*
Y613165D01*
X680939Y613207D01*
X680925Y613248D01*
X680911Y613387D01*
X680883Y613581D01*
X680855Y613803D01*
X680828Y614067D01*
X680814Y614358D01*
X680800Y614677D01*
Y618130D01*
X690397D01*
Y614441D01*
D02*
G37*
G36*
Y605843D02*
Y604456D01*
X680800Y600531D01*
Y601973D01*
X683712Y603097D01*
Y607118D01*
X680800Y608159D01*
Y609504D01*
X690397Y605843D01*
D02*
G37*
G36*
X688025Y599075D02*
X688053Y599047D01*
X688067Y598992D01*
X688109Y598922D01*
X688150Y598839D01*
X688206Y598742D01*
X688344Y598506D01*
X688497Y598229D01*
X688691Y597952D01*
X688913Y597660D01*
X689149Y597369D01*
X689163Y597355D01*
X689176Y597341D01*
X689218Y597300D01*
X689260Y597244D01*
X689398Y597119D01*
X689565Y596953D01*
X689759Y596786D01*
X689981Y596606D01*
X690203Y596454D01*
X690439Y596315D01*
Y595552D01*
X680800D01*
Y596731D01*
X688303D01*
X688289Y596745D01*
X688233Y596814D01*
X688150Y596898D01*
X688053Y597036D01*
X687928Y597189D01*
X687790Y597383D01*
X687637Y597605D01*
X687485Y597854D01*
Y597868D01*
X687471Y597882D01*
X687415Y597965D01*
X687346Y598104D01*
X687263Y598270D01*
X687166Y598465D01*
X687068Y598673D01*
X686971Y598881D01*
X686888Y599089D01*
X688025D01*
Y599075D01*
D02*
G37*
G36*
X604440Y618588D02*
X596937D01*
X596951Y618574D01*
X597006Y618504D01*
X597090Y618421D01*
X597187Y618283D01*
X597312Y618130D01*
X597450Y617936D01*
X597603Y617714D01*
X597755Y617464D01*
Y617450D01*
X597769Y617437D01*
X597825Y617353D01*
X597894Y617215D01*
X597977Y617048D01*
X598074Y616854D01*
X598172Y616646D01*
X598269Y616438D01*
X598352Y616230D01*
X597215D01*
Y616244D01*
X597187Y616272D01*
X597173Y616327D01*
X597131Y616396D01*
X597090Y616480D01*
X597034Y616577D01*
X596896Y616813D01*
X596743Y617090D01*
X596549Y617367D01*
X596327Y617659D01*
X596091Y617950D01*
X596077Y617964D01*
X596063Y617977D01*
X596022Y618019D01*
X595980Y618074D01*
X595842Y618199D01*
X595675Y618366D01*
X595481Y618532D01*
X595259Y618713D01*
X595037Y618865D01*
X594801Y619004D01*
Y619767D01*
X604440D01*
Y618588D01*
D02*
G37*
%LPC*%
G36*
X689260Y616854D02*
X681937D01*
Y614580D01*
X681951Y614483D01*
X681965Y614275D01*
X681979Y614039D01*
X682007Y613789D01*
X682048Y613540D01*
X682104Y613331D01*
X682117Y613304D01*
X682131Y613234D01*
X682173Y613137D01*
X682228Y613013D01*
X682312Y612874D01*
X682395Y612735D01*
X682492Y612597D01*
X682603Y612458D01*
X682631Y612444D01*
X682686Y612388D01*
X682783Y612305D01*
X682922Y612208D01*
X683102Y612097D01*
X683310Y611972D01*
X683546Y611861D01*
X683810Y611764D01*
X683823D01*
X683851Y611750D01*
X683893Y611737D01*
X683948Y611723D01*
X684017Y611709D01*
X684115Y611681D01*
X684212Y611654D01*
X684323Y611626D01*
X684600Y611584D01*
X684919Y611543D01*
X685279Y611515D01*
X685668Y611501D01*
X685682D01*
X685737D01*
X685807D01*
X685917Y611515D01*
X686042D01*
X686181Y611529D01*
X686347Y611543D01*
X686514Y611556D01*
X686888Y611626D01*
X687277Y611709D01*
X687637Y611834D01*
X687817Y611917D01*
X687970Y612000D01*
X687984D01*
X688012Y612028D01*
X688053Y612056D01*
X688109Y612083D01*
X688247Y612194D01*
X688414Y612333D01*
X688594Y612513D01*
X688774Y612721D01*
X688927Y612957D01*
X689052Y613207D01*
X689066Y613234D01*
X689079Y613304D01*
X689121Y613429D01*
X689163Y613609D01*
X689190Y613831D01*
X689232Y614108D01*
X689246Y614275D01*
Y614455D01*
X689260Y614635D01*
Y616854D01*
D02*
G37*
G36*
X684753Y606744D02*
Y603499D01*
X687387Y604497D01*
X687401D01*
X687443Y604511D01*
X687512Y604539D01*
X687596Y604567D01*
X687693Y604608D01*
X687817Y604650D01*
X687956Y604692D01*
X688095Y604747D01*
X688414Y604858D01*
X688747Y604969D01*
X689079Y605080D01*
X689398Y605177D01*
X689385D01*
X689357Y605191D01*
X689301D01*
X689246Y605219D01*
X689149Y605232D01*
X689052Y605260D01*
X688816Y605316D01*
X688539Y605385D01*
X688233Y605482D01*
X687901Y605579D01*
X687554Y605704D01*
X684753Y606744D01*
D02*
G37*
%LPD*%
D63*
X643300Y563130D02*
X725800D01*
Y628130D01*
X643300D02*
X725800D01*
X643300Y563130D02*
Y628130D01*
X624440Y561230D02*
Y706230D01*
X574440Y561230D02*
X624440D01*
X574440D02*
Y706230D01*
X624440D01*
M02*
