M48
;Layer_Color=9474304
;FILE_FORMAT=4:4
METRIC
;TYPE=PLATED
T1F00S00C0.7112
T2F00S00C1.1000
T3F00S00C3.0000
%
T01
X00812800Y00608330
X00846328Y00650240
X00832230Y00699390
X00820420Y00723900
X00841248Y00783336
X00857250Y00772160
X00877316Y00793242
X01028827Y00716661
X01076960Y00665480
X00861060Y00563880
X00633730Y00608330
X00614426Y00654050
X00789940Y00775970
X00722630Y00924306
X00722122Y00989678
X00600870
X00580136Y00919480
X00795020Y00932180
X00938530Y00901700
X00972820Y00989330
X00871220Y00811530
X00855980Y00800354
T02
X00812800Y00580390
X00838200
X00825500Y00637540
Y00662940
X00800100
Y00637540
X00923290Y00623570
Y00598170
X00948690
Y00623570
X00974090
Y00598170
X00999490
X01024890
X01050290
X01075690
X01101090
Y00623570
X01075690
X01050290
X01024890
X00999490
X00774700Y00637540
Y00662940
X00787400Y00580390
X00762000
T03
X01184910Y00577850
X00542290Y00575310
Y01027430
X01184910Y01028700
M30
